/* XPM */
static char *_b3eec1be1d54de1a93daded1ac33f19o4GdFEEDZ6PDX0HE[] = {
/* columns rows colors chars-per-pixel */
"50 50 52 1 ",
"  c #010101",
". c #060606",
"X c gray3",
"o c gray5",
"O c #131313",
"+ c gray8",
"@ c gray9",
"# c gray10",
"$ c #1E1E1E",
"% c gray13",
"& c gray16",
"* c #2F2F2F",
"= c #343434",
"- c gray21",
"; c gray24",
": c #414141",
"> c gray28",
", c gray29",
"< c #525050",
"1 c #555555",
"2 c #5D5D5D",
"3 c #676767",
"4 c #6C6C6C",
"5 c gray44",
"6 c gray47",
"7 c gray48",
"8 c #8B8B8B",
"9 c #8D8D8D",
"0 c #909090",
"q c gray61",
"w c #9F9F9F",
"e c gray63",
"r c gray65",
"t c gray67",
"y c #B1B1B1",
"u c gray71",
"i c #B9B9B9",
"p c #BBBBBB",
"a c #C0C0C0",
"s c #C6C6C6",
"d c #CBCBCB",
"f c #D7D7D7",
"g c gray85",
"h c gray87",
"j c gray89",
"k c #E7E7E7",
"l c #EAEAEA",
"z c #EFEFEF",
"x c #F1F1F1",
"c c #F6F6F6",
"v c gray98",
"b c white",
/* pixels */
"<<<<<<<<<<<<<<<<<<<<<<<<<<<<<<<<<<<<<<<<<<<<<<<<<<",
"<<<<<<<<<<<<<<<<<<<<<<<<<<<<<<<<<<<<<<<<<<<<<<<<<<",
"<<<<<<<<<<<<<<<<<<<<<<<<<<<<<<<<<<<<<<<<<<<<<<<<<<",
"<<<<<<<<<<<<<<<<<<<<<<<<<<<<<<<<<<<<<<<<<<<<<<<<<<",
"<<<<<<<<<<<<<<<<<<<<<<<<<<<<<<<<<<<<<<<<<<<<<<<<<<",
"<<<<<<<<<<<<<<<<<<<<<<<<<<<<<<<<<<<<<<<<<<<<<<<<<<",
"<<<<<<<<<<<<<<<<<<<<<<<<<<<<<<<<<<<<<<<<<<<<<<<<<<",
"<<<<<<<<<<<<<<<<<<<<<<<<<<<<<<<<<<<<<<<<<<<<<<<<<<",
"<<<<<555555555555555555555555555555555555<<<<<<<<<",
"<<<<<5bbbbbbbbbbbbbbbbbbbbbbbbbbbbbbbbbb5<<<<<<<<<",
"<<<<<5bbbbbbbbbbbbbbbbbbbbbbbbbbbbbbbbbb5<<<<<<<<<",
"<<<<<5bbbbbbbbbbbbbbbbbbbbbbbbbbbbbbbbbb5<<<<<<<<<",
"<<<<<5bbbbbbbbbbbbbbbbbbbbbbbbbbbbbbbbbb5<<<<<<<<<",
"<<<<<5bbbbbbbbbbbbbbbbbbbbbbbbbbbbbbbbbb5<<<<<<<<<",
"<<<<<5bbbbbbbbbbbbbbbbbbbbbbbbbbbbbbbbbb5<<<<<<<<<",
"<<<<<5bbbbbbbbbbbbbbbbbbbbbbbbbbbbbbbbbb5<<<<<<<<<",
"<<<<<5bbbbbbbbbbbbbbbbbbbbbbbbbbbbbbbbbb4<<<<<<<<<",
"<<<<<5bbbbbbbbbbbbbbbbbbbbbbbbbbbbbbbbbb5<<<<<<<<<",
"<<<<<5bbbbbbbbbbbbbbbbbbbbbbbbbbbbbbbbbb5<<<<<<<<<",
"<<<<<5bbbbbbbbbbbbbbbbbbbbbbbbbbbbbbbbbb5<<<<<<<<<",
"<<<<<5bbbizbbbbbazbbbbbbbbbbbbcibbbbbbbb5<<<<<<<<<",
"<<<<<5bbb ibbbbb$sbbbbbbbbbbbbh.bbbbbbbb5<<<<<<<<<",
"<<<<<5bbb.abbbbb$sbbbbbbbbbbbbh.bbbbbbbb5<<<<<<<<<",
"<<<<<5bbb abbbbb$0*o:fbbt&.$0bh.w$@2xbbb5<<<<<<<<<",
"<<<<<5bbb abbbbb$%dz6#cl.tcu.ch ,jj><bbb5<<<<<<<<<",
"<<<<<5bbb.abbbbb$wbbb%tzibbi kh hbbh lbb5<<<<<<<<<",
"<<<<<5bbb ibbbbb$dbbb,8b9-&1 khXbbbbXdbb5<<<<<<<<<",
"<<<<<5bbb.abbbbb$tbbb*er%jbv kh lbbx jbb5<<<<<<<<<",
"<<<<<5bbb icccxb$-zbyXl8;bb9 jh 3bb4-bbb5<<<<<<<<<",
"<<<<<5bbb      f$3O$@ybh%#$6*,h.4OO-gbbb5<<<<<<<<<",
"<<<<<5bbbbbbbbbbbbvkbbbbbjvbvxbbbzzbbbbb5<<<<<<<<<",
"<<<<<5bbbbbbbbbbbbbbbbbbbbbbbbbbbbbbbbbb5<<<<<<<<<",
"<<<<<5bbbbbbbbbbbbbbbbbbbbbbbbbbbbbbbbbb5<<<<<<<<<",
"<<<<<5bbbbbbbbbbbbbbbbbbbbbbbbbbbbbbbbbb5<<<<<<<<<",
"<<<<<5bbbbbbbbbbbbbbbbbbbbbbbbbbbbbbbbbb5<<<<<<<<<",
"<<<<<5bbbbbbbbbbbbbbbbbbbbbbbbbbbbbbbbbb5<<<<<<<<<",
"<<<<<5bbbbbbbbbbbbbbbbbbbbbbbbbbbbbbbbbb5<<<<<<<<<",
"<<<<<5bbbbbbbbbbbbbbbbbbbbbbbbbbbbbbbbbb5<<<<<<<<<",
"<<<<<5bbbbbbbbbbbbbbbbbbbbbbbbbbbbbbbbbb5<<<<<<<<<",
"<<<<<5bbbbbbbbbbbbbbbbbbbbbbbbbbbbbbbbbb5<<<<<<<<<",
"<<<<<5bbbbbbbbbbbbbbbbbbbbbbbbbbbbbbbbbb5<<<<<<<<<",
"<<<<<5bbbbbbbbbbbbbbbbbbbbbbbbbbbbbbbbbb5<<<<<<<<<",
"<<<<<555555555555555555555555555555555555<<<<<<<<<",
"<<<<<<<<<<<<<<<<<<<<<<<<<<<<<<<<<<<<<<<<<<<<<<<<<<",
"<<<<<<<<<<<<<<<<<<<<<<<<<<<<<<<<<<<<<<<<<<<<<<<<<<",
"<<<<<<<<<<<<<<<<<<<<<<<<<<<<<<<<<<<<<<<<<<<<<<<<<<",
"<<<<<<<<<<<<<<<<<<<<<<<<<<<<<<<<<<<<<<<<<<<<<<<<<<",
"<<<<<<<<<<<<<<<<<<<<<<<<<<<<<<<<<<<<<<<<<<<<<<<<<<",
"<<<<<<<<<<<<<<<<<<<<<<<<<<<<<<<<<<<<<<<<<<<<<<<<<<",
"<<<<<<<<<<<<<<<<<<<<<<<<<<<<<<<<<<<<<<<<<<<<<<<<<<"
};
