/* XPM */
static char *_c7889cc06b64c62b8abc41091fe81e8shoyX8jomYO3bKIg[] = {
/* columns rows colors chars-per-pixel */
"50 50 63 1 ",
"  c black",
". c #040404",
"X c #090909",
"o c #0E0E0E",
"O c #111111",
"+ c #161616",
"@ c #181818",
"# c #1D1D1D",
"$ c #202020",
"% c gray15",
"& c #2A2A2A",
"* c gray17",
"= c gray18",
"- c gray19",
"; c #353535",
": c #393939",
"> c gray24",
", c #434343",
"< c #464646",
"1 c #484848",
"2 c gray30",
"3 c #525050",
"4 c #555555",
"5 c #585858",
"6 c #5F5F5F",
"7 c #606060",
"8 c #646464",
"9 c DimGray",
"0 c #6D6D6D",
"q c gray44",
"w c #7B7B7B",
"e c #838383",
"r c gray52",
"t c #888888",
"y c #8D8D8D",
"u c #909090",
"i c gray59",
"p c #989898",
"a c gray62",
"s c gray63",
"d c #A5A5A5",
"f c gray67",
"g c #AEAEAE",
"h c gray71",
"j c #B9B9B9",
"k c gray74",
"l c #C1C1C1",
"z c #C5C5C5",
"x c #C6C6C6",
"c c LightGray",
"v c gray83",
"b c gray86",
"n c #DDDDDD",
"m c #DFDFDF",
"M c #E2E2E2",
"N c #E6E6E6",
"B c #E9E9E9",
"V c #ECECEC",
"C c gray94",
"Z c #F6F6F6",
"A c #F8F8F8",
"S c gray98",
"D c white",
/* pixels */
"33333333333333333333333333333333333333333333333333",
"33333333333333333333333333333333333333333333333333",
"33333333333333333333333333333333333333333333333333",
"33333333333333333333333333333333333333333333333333",
"33333333333333333333333333333333333333333333333333",
"33333333333333333333333333333333333333333333333333",
"33333333333333333333333333333333333333333333333333",
"33333333333333333333333333333333333333333333333333",
"33333qqqqqqqqqqqqqqqqqqqqqqqqqqqqqqqqqqqq333333333",
"33333qDDDDDDDDDDDDDDDDDDDDDDDDDDDDDDDDDDq333333333",
"33333qDDDDDDDDDDDDDDDDDDDDDDDDDDDDDDDDDDq333333333",
"33333qDDDDDDDDDDDDDDDDDDDDDDDDDDDDDDDDDDq333333333",
"33333qDDDDDDDDDDDDDDDDDDDDDDDDDDDDDDDDDDq333333333",
"33333qDDDc%Dy0DDDDDDDDDDDDoVDDDDDDDDDDDDq333333333",
"33333qDDDc%Dy0DDDDDDDDDDDDoVDDDDDDDDDDDDq333333333",
"33333qDDDc%Dy72o:cDD9OX5ZDoi$@wDDDDDDDDDq333333333",
"33333qDDDc%Dy.sVt#Sa=nB&hDo>Mv&iDDDDDDDDq333333333",
"33333qDDDc%Dy<DDD&jcvDC;aDoxDDf:DDDDDDDDq333333333",
"33333qDDDc%Dy0DDD3pV0=-%aDoVDDc@DDDDDDDDq333333333",
"33333qDDDc%Dy5DDD>f78ZD5aDovDDk=DDDDDDDDq333333333",
"33333qDDDc%DyXnDcXB:dDB@aDo8DD4qDDDDDDDDq333333333",
"33333qDDDc%Dy,&=@dDaO;>8@Do7%#1VDDDDDDDDq333333333",
"33333qDDDDDDDDDNDDDDZVDDCDDDCCDDDDDDDDDDq333333333",
"33333qDDDDDDDDDDDDDDDDDDDDDDDDDDDDDDDDDDq333333333",
"33333qDDDDDDDDDDDDDDDDDDDDDDDDDDDDDDDDDDq333333333",
"33333qDDDDDDDDDDDDDDDDDDDDDDDDDDDDDDDDDDq333333333",
"33333qDDDDDDDDDDDDDDDDDDDDDDDDDDDDDDDDDDq333333333",
"33333qDDDZ 2DDDDl eD1-;;;ec%DDDDDDDDu9DDq333333333",
"33333qDDDZ @BDDD8+eDMnMb;lc%DDDDDDDDi8DDq333333333",
"33333qDDDZ 0iDDS#6eDDDD7pDc%DDa%O6CDi8DDq333333333",
"33333qDDDZ x:DDg69eDDDc$DDc%Dj+xB34Du8DDq333333333",
"33333qDDDZ Z=nD3h8eDDD3iDDc%D4rDDB.Zu9DDq333333333",
"33333qDDDZ ZerV#S9eDDVXNDDc%D;hDDD+cu8DDq333333333",
"33333qDDDZ Zb&a9D9eDDd;DDDc%D2aDDS.Bi9DDq333333333",
"33333qDDDC ZD;#xD9eDDq0DDDc%Di-ZDt;Du8DDq333333333",
"33333qDDDZ ZDy#DD9eDD1iDDDc%DS9@==cDi8DDq333333333",
"33333qDDDDDDDDDDDDDDDDDDDDDDDDDSVDDDDDDDq333333333",
"33333qDDDDDDDDDDDDDDDDDDDDDDDDDDDDDDDDDDq333333333",
"33333qDDDDDDDDDDDDDDDDDDDDDDDDDDDDDDDDDDq333333333",
"33333qDDDDDDDDDDDDDDDDDDDDDDDDDDDDDDDDDDq333333333",
"33333qDDDDDDDDDDDDDDDDDDDDDDDDDDDDDDDDDDq333333333",
"33333qDDDDDDDDDDDDDDDDDDDDDDDDDDDDDDDDDDq333333333",
"33333qqqqqqqqqqqqqqqqqqqqqqqqqqqqqqqqqqqq333333333",
"33333333333333333333333333333333333333333333333333",
"33333333333333333333333333333333333333333333333333",
"33333333333333333333333333333333333333333333333333",
"33333333333333333333333333333333333333333333333333",
"33333333333333333333333333333333333333333333333333",
"33333333333333333333333333333333333333333333333333",
"33333333333333333333333333333333333333333333333333"
};
