/* XPM */
static char *bf84978bb3f84f79eabb59bdedb7747a1R4lBWuROTJgmado[] = {
/* columns rows colors chars-per-pixel */
"50 50 239 2 ",
"   c #3B1B0D",
".  c #211E16",
"X  c #3A1F10",
"o  c #2A231A",
"O  c #2B2A1D",
"+  c #38261A",
"@  c #3E1B25",
"#  c #2D2623",
"$  c #2E2D20",
"%  c #332E22",
"&  c #382925",
"*  c #2E3229",
"=  c #353324",
"-  c #3A3429",
";  c #3D2E35",
":  c #393733",
">  c #461F0E",
",  c #491E0D",
"<  c #482414",
"1  c #552613",
"2  c #78280C",
"3  c #652912",
"4  c #6E2A11",
"5  c #4A1C24",
"6  c #57252C",
"7  c #55362E",
"8  c #4B2734",
"9  c #582A35",
"0  c #463737",
"q  c #75342C",
"w  c #652D3A",
"e  c #6B2E3A",
"r  c #6A333D",
"t  c #71323D",
"y  c #32512E",
"u  c #35443A",
"i  c #24652B",
"p  c #4A4235",
"a  c #4D4B31",
"s  c #554B3F",
"d  c #6C5828",
"f  c #784733",
"g  c #714F31",
"h  c #4C3545",
"j  c #52384A",
"k  c #5C3A54",
"l  c #6C3643",
"z  c #783745",
"x  c #673D58",
"c  c #2F4E4A",
"v  c #3C5449",
"b  c #376E73",
"n  c #56544A",
"m  c #435B56",
"M  c #77464E",
"N  c #65594C",
"B  c #7A5A49",
"V  c #6A415B",
"C  c #734E50",
"Z  c #774558",
"A  c #4D6451",
"S  c #787A4C",
"D  c #6C6658",
"F  c #796658",
"G  c #6C4867",
"H  c #724667",
"J  c #775570",
"K  c #546D6B",
"L  c #4A7B7E",
"P  c #547777",
"I  c #6A6E66",
"U  c #746B65",
"Y  c #76766D",
"T  c #757C74",
"R  c #862C0C",
"E  c #8D2C0A",
"W  c #932D0A",
"Q  c #9B2E0A",
"!  c #8C320F",
"~  c #94320D",
"^  c #9C310C",
"/  c #942E11",
"(  c #9A2E16",
")  c #8D3313",
"_  c #893619",
"`  c #8C3C1B",
"'  c #933413",
"]  c #9C3512",
"[  c #9C3A13",
"{  c #98381A",
"}  c #A12F0B",
"|  c #A4320B",
" . c #AB340B",
".. c #A53A0E",
"X. c #AC3A0D",
"o. c #B1370C",
"O. c #B1390E",
"+. c #A43412",
"@. c #AC3514",
"#. c #A43B13",
"$. c #AA3D12",
"%. c #A4341B",
"&. c #A8391A",
"*. c #B23C13",
"=. c #B13818",
"-. c #883C22",
";. c #9E3423",
":. c #9E3629",
">. c #942E3B",
",. c #A83826",
"<. c #B43C27",
"1. c #AD3D37",
"2. c #B53F35",
"3. c #8E431B",
"4. c #A34215",
"5. c #A94718",
"6. c #B54617",
"7. c #AA531E",
"8. c #B65418",
"9. c #88452A",
"0. c #9B4323",
"q. c #964828",
"w. c #8F552E",
"e. c #854B34",
"r. c #89543D",
"t. c #945639",
"y. c #B75A22",
"u. c #B84139",
"i. c #87693B",
"p. c #936232",
"a. c #BA6428",
"s. c #B96B36",
"d. c #C35113",
"f. c #C9592B",
"g. c #D3672A",
"h. c #CE6F30",
"j. c #C67A34",
"k. c #833A48",
"l. c #8B3E4E",
"z. c #8B3E52",
"x. c #AF394B",
"c. c #CF2C77",
"v. c #8A404E",
"b. c #875A48",
"n. c #91594B",
"m. c #894155",
"M. c #944353",
"N. c #AA4047",
"B. c #B94347",
"V. c #BD485A",
"C. c #8C654A",
"Z. c #8C784B",
"A. c #896957",
"S. c #924763",
"D. c #815479",
"F. c #AC4F75",
"G. c #956A6E",
"H. c #867567",
"J. c #A97162",
"K. c #C14646",
"L. c #C44A58",
"P. c #C27248",
"I. c #D04E71",
"U. c #C66F71",
"Y. c #518F64",
"T. c #569661",
"R. c #689566",
"E. c #77837C",
"W. c #CC883C",
"Q. c #D4893C",
"!. c #8E844E",
"~. c #B69952",
"^. c #8B8A6E",
"/. c #A8877A",
"(. c #AE927C",
"). c #85A07C",
"_. c #D18F40",
"`. c #D79845",
"'. c #DEAF54",
"]. c #E8B455",
"[. c #D58877",
"{. c #D69D70",
"}. c #E8A974",
"|. c #EEC15C",
" X c #F4CC65",
".X c #DC2A85",
"XX c #CC3E85",
"oX c #E3368E",
"OX c #8B5B87",
"+X c #905E8C",
"@X c #946090",
"#X c #AF6E86",
"$X c #D1508C",
"%X c #E24F91",
"&X c #E4569D",
"*X c #E46493",
"=X c #EA79AD",
"-X c #4E868A",
";X c #698F8F",
":X c #758B87",
">X c #74A597",
",X c #69B2BA",
"<X c #8D8E85",
"1X c #978B83",
"2X c #9C938D",
"3X c #A79589",
"4X c #B7998A",
"5X c #A79192",
"6X c #8EAA91",
"7X c #BDA795",
"8X c #B4AA90",
"9X c #B0ADA9",
"0X c #B8B7B4",
"qX c #DA989E",
"wX c #CFAB93",
"eX c #C5A998",
"rX c #E78DAB",
"tX c #CAB5A3",
"yX c #D5B5A1",
"uX c #DBBBA6",
"iX c #DABBA7",
"pX c #EDAEB2",
"aX c #A7C69C",
"sX c #BAC6B7",
"dX c #E9C693",
"fX c #D6C9B8",
"gX c #E4C2AD",
"hX c #EBC8AE",
"jX c #E6C9B5",
"kX c #EDCBB4",
"lX c #F1CEB6",
"zX c #F3CFB8",
"xX c #F4D0B7",
"cX c #F5D1B9",
"vX c #EAB3C5",
"bX c #C8C7C6",
"nX c #DAD8D7",
"mX c #E4D7D2",
"MX c #F0EFED",
/* pixels */
"R Y ,X:X-.E E E E E E E E W W W E E / V.V./ E E W W 3.7.4.~ E ~ _ :X,X:XE W W E W W E E R E E W ;.! ",
"R e.Y B R R E E W E W W E E _ -.W W W ;.,.W W W ~ ' j.|.`.! W E / b.T f W E / :.( E E ` 3.W E ,.V.;.",
"E E R R ) E E W W E ;.;.W W b.F W W W W W W W ! ) ~ j.].`.~ ~ [ W W ) E W W { B.,.E W i.S E ) ) ( / ",
"E E E 9.F _ E W E W ,.1.( W 9.e.W W W W W W ~ w.b.' 4.a.7.~ 4.y.s.J.0.{ W W ( ( ' W E 3.9.) F 9.R E ",
"E E W 9.T T -.W W W Q Q W W W W W W Q ^ Q W W 9.e.~ W Q W Q [ a.wXmXwXZ.w.~ [ [ W W W W ` A.T e.E W ",
"E E W ! B ;XT ' W W W W Q W Q ( Q W 4.s.4.Q Q W ' W Q W W W Q a.dXmXiXA.d 4.W.W.5.W W ' U ;XD _ W E ",
"E W E 9.K -X;X) W W W W W Q Q V.1.W #.W.7.Q Q Q q.b.] Q Q Q 4.h.}.dXs.~ ^ 8.|.].y.W Q ' T -XP e.W W ",
"E W ~ b.T q ) W Q W Q Q W Q Q 1.%.Q ^ a.4.Q Q ~ A.F ' } Q  .P.{.I.g.4.Q Q 4.W.W.4.W W Q ` -.Y F ' W ",
"W ~ B P D ) Q W Q W Q Q ' Q Q Q Q Q Q Q Q Q Q ] b.r.Q ^ w.x.$X.X%Xg.o.] | Q ^ Q Q %.,.W Q ' F P D / ",
"~ ' Y I _ W W Q Q Q %.2.u.,.Q Q Q | Q ^ | Q Q | ] Q } q.).c.oX%X*Xh.8.h.a.Q Q Q Q B.B.Q Q W ` F T ` ",
"E ~ F E.0.E Q Q Q ^ 1.L.V.x.^ ^ Q [ 4.^ | ^ | Q Q } ( n.1Xc.&X=XI.f.h.h.8.| Q Q Q +.%.Q Q Q ` T I ) ",
"~ f K K ` W Q Q Q ^ ( ,.;.>.Q ^ ..i.i.[ Q | ^ p.d d a D #X.X%XoXL.X.4.d.X.4.6...Q ] } Q Q Q { U K C ",
") n g _ / Q W Q Q } } %.x.x.&.^ ~ B R.R.4 2 4 A T.T.N @X$X&XvX&XU.&.| a.j.j.y.[ n.n.| } Q } ^ ` f A ",
"{ D 9.W Q q.H.{ Q } Q %.B.I.I.N.1 + a a = + % 0 F >X2XbX&XoX%X&XU.%.| $.5.4.^ ^ b.e.| Q } } } Q -.F ",
"^ r.b.^ Q q.F { | | } | ^ R 6 m.M = = = = = h m.#XsX6X$XrXvX%X$Xx.@.| | | | | | Q Q | ^ } +.+.| t.b.",
"Q Q ~ Q Q Q ] } | Q } } R < = w 7 = = = = - p F F R.Y XX=XvX.X.Xk.2 } ..w.{ | | | ..| } +.V.2.} Q Q ",
"Q Q ^ Q } } } +.| | | Q 3 6 l w - = = = = y i i i A #XvX&X.X.X$XM < E [ T w.| ..t.A.0.| | ,.%.Q } } ",
"Q ^ | | | } +.L.<.| Q 2 5 S.S.s - = = = = Y.y y p C F.rX&Xc.$XqXM o q [ { #.| 0.:X,XH.| | | } |  .+.",
"^ 5.a.$.Q | +.2.,.| ^ 3 < C F.S.7 = = = = T.y = = - 7 z.G.qX}.[.M $ K C.#.|  .#.H.:Xb.} | | | +.y.6.",
"} a._.#.} } | | | } Q 1 = - 0 r = = p F 0 Y.A = = = - 0 n ~. X_.p * m ;XC.@. .| #.0.^ | | | |  ._.j.",
"| j.Q.#.} | | } | | W 1 $ = = % o p /.yXD v T.= = = m m & d !.d % O : L >Xn. . .|  .}  .+.0.0...j._.",
"| 5.a...| } | | | | R < = * = p N 4XlXcXeXy E.s = = K m - = = 0 % * L b -Xb. . .|  . .+.%.H.b.| y.y.",
"| | } } | | | @. .| E g ~.~.F yXkXjXsXfXhX/.wXgX7XH.;XA = = = = % c -Xg [ |  . . . . .=.+.+.[ | | | ",
"] } | | | | o.g.d. .E p.|. XdXxXcXjX0X0XhXzXkXcXcXcXyXF - = = = v b L 7  . . . . . .d.g.*. .|  .| | ",
"| } } | | | *.g.f. .W g {. XhXcXcXxXgXeXkXcXcXcXcXcXcXyXn = = = m -X: ,  .X. . . .o.f.g.6.| |  . .| ",
"4.| | |  .| =.=.@. .W f 7XjXgXpXlXxXtX7XkXcXcXcXcXcXcXcX4X= = = c -Xc +  . .o.o. .o.=.6.@. . . .|  .",
"..| @.<.=.|  . .|  .Q w.yXgX/.rXpXuX4X8XjXlXcXkXeXuXcXcXgX0 = u b b u X | o.=.<.o. . . . . .=.<.@. .",
"| | 2.L.,.|  . . . .Q n.yXkXuXhXhXwXeXaXaX8XjXlXuXhXcXcXlXN * c c * # X | *.K.K.o.o.$.p.@. .<.L.2.@.",
" . .2.B.@. .|  . . .| t.uXcXcXxXkXyX(.(.^.H.jXzXkXlXxXcXxXF = m m * O X |  .*.@. . .@.^.Z.5.o.K.x.+.",
"$.| | | | |  . .@.o.| n.yXuX7X<X2X1X1X3X1XH.5X2X<X3X3XeXlXF = u v * O X 4.7.X.o.o.o.X.4.w.#. . . .| ",
"| | | | |  . .t.H.t.^ w.yX4X6X0XbXbXbXMXbXbXMXnX0XnX9X3XhXF = = % O O > p.!.X.o.o.o.X.6.X. . . . . .",
"| |  .|  .@.&.H.,X:X[ 9.wXuX6X6X0X9X0XnX0X0XnX0X9XbX7XuXcXD = = % O O + 4.q. .o.o.o.a.Q.d. . . . . .",
"| |  .|  . . .A.:XA.#._ /.kXtX8XeXeXeXtX9XeXyXeXeXtXuXlXzXN % = = O O >  .o.o.o.o.6.'. XQ.o. . .=.<.",
" .|  .|  .}  .+.0.%. .R b.gXcXcXcXcXcXcXcXcXcXcXzXcXzXcXkXn = - % O # >  .o.o.o.o.o.Q.`.g.|  . .u.x.",
"| | |  . . . . . . . .W 3 4XcXcXcXcXcXcXcXcXcXcXcXcXzXiX/.% = = * O O > o.X.O.o.o.o.O.6.o. . . .<.L.",
"|  .| |  . . . .o. .o. .3 n uXcXcXcXcXcXcXcXcXcXcXgX3Xm.v.< = = = O o > o.o.o.o.o.o.o. . .6.8.X.@.@.",
"| | |  . . . . . . . . .) + n eXlXcXzXzXzXjXuXyX4Xn.l.M.l.& = = % O O X | o.o.o.o.o.o.o.o.d.`.8. . .",
"|  .|  .=.<.@. . .o. .o...1 O - H.4X/.J.G.b.v.k.k.z.l.k.t + = = = O o X ^ o.o.o.o.o. . . .8.`.y. . .",
"| | |  .<.K.%. . .o. . .X.2 + O & r k.t 9 6 6 e e l t e e & = = = O O o W o.o.o.o. .o. . .6.h.6. .| ",
"| | |  .@.@.@. . . .o. . .^ + O o e v.t w e e e e e z k.l.& = = = $ O o E o.o.o.o.o.o. . . .X... . .",
"|  .|  .| | |  . . .o. . . .1 O # w l.l.M.M.l.l.k.z.z.k.e + = = = $ o o 2 o.o.o.o. .o. . . . . . .| ",
"| | | |  .|  . . . . . .o. .4 + & 8 w z z k.k.k.z l l 8 8 # = = = + O . 3 o. .o.o.o.o. . . . . . . .",
"| | |  .|  . . . . . . . .o.E O # j x 8 5 5 5 5 5 k G k J 0 = = = % o . ,  .o. . .o.o. . . . . . .| ",
"| | | | | |  . . . . . . .o.W + # ; h w e e e 6 8 H G D.OX; = = = $ . .   |  .@. . . . . . . . . .| ",
"| | | |  .|  .| |  . . . . .Q + % 0 k z z.z.z.e 9 H +XOXJ : * = = $ O o @ / @. . . . . .| |  .}  .| ",
"} | | } | | |  .| |  .|  . .^ < = h x z.z.x.z.e 6 H +XOXJ ; = = = $ O o j -.|  . . . .|  . .|  .| | ",
"} | | | | | | | |  . . . . .^ + % j H z.x.M.z.z 6 V +XOXJ ; % = = O O o h z W  . . . . .|  .|  .|  .",
"} | } } |  .| |  .| |  .|  .^ < = k V m.M.M.z.l 6 x OXOXG h % - = O O O ; D._ |  . . .|  . .|  .| | ",
"} } | | } | | | | | | |  . .Q X - V Z l.M.M.M.l 8 H OXOXJ k * % = O O O % J k.]  . . .|  .| | | | | ",
"} } | | | | | | | | |  . .| Q X - G H z M.M.M.z k J OX@X+XG & = = O O O # J H _ |  .|  . .| | | | | "
};
