/* XPM */
static char *_eb2ed7be4384793e9013bc63b9233368D1SyfunkCAcs7Ne[] = {
/* columns rows colors chars-per-pixel */
"50 50 138 2 ",
"   c #1B120B",
".  c #151616",
"X  c #1D1D1D",
"o  c #341E02",
"O  c #211F1E",
"+  c #1F201F",
"@  c #362104",
"#  c #3A2305",
"$  c #37240B",
"%  c #3C260A",
"&  c #3E290E",
"*  c #22201F",
"=  c #372611",
"-  c #3B2A13",
";  c #3D2E1A",
":  c #3D301E",
">  c #242424",
",  c #2C2925",
"<  c #2D2C2B",
"1  c #332C26",
"2  c #322F2D",
"3  c #3D3020",
"4  c #36312D",
"5  c #3B3229",
"6  c #343434",
"7  c #3D3833",
"8  c #3E3C3C",
"9  c #452F15",
"0  c #473012",
"q  c #4C3316",
"w  c #41311D",
"e  c #423729",
"r  c #43392E",
"t  c #443B31",
"y  c #493E33",
"u  c #413F3E",
"i  c #5E4427",
"p  c #54412C",
"a  c #46403B",
"s  c #4A433C",
"d  c #54463B",
"f  c #64492A",
"g  c #684E31",
"h  c #6D5335",
"j  c #705538",
"k  c #454343",
"l  c #4A4643",
"z  c #4D4945",
"x  c #4D4B4B",
"c  c #514A44",
"v  c #5A4E44",
"b  c #514F4E",
"n  c #5C5047",
"m  c #51504F",
"M  c #5F5348",
"N  c #514F50",
"B  c #525050",
"V  c #5B5B5B",
"C  c #625347",
"Z  c #63554A",
"A  c #66584B",
"S  c #695B4E",
"D  c #695C51",
"F  c #7E6244",
"G  c #6F6055",
"H  c #736253",
"J  c #7C6957",
"K  c #776558",
"L  c #7D6A5B",
"P  c #606060",
"I  c #766A61",
"U  c #8A6C4E",
"Y  c #846F5D",
"T  c #84705F",
"R  c #947557",
"E  c #8A7463",
"W  c #857669",
"Q  c #8E7B6C",
"!  c #917A67",
"~  c #967E6A",
"^  c #837B73",
"/  c #8C7F73",
"(  c #9E8164",
")  c #99826D",
"_  c #AE8D6E",
"`  c #B08E6F",
"'  c #A38974",
"]  c #A98E77",
"[  c #AE927B",
"{  c #B1967D",
"}  c #828282",
"|  c #969696",
" . c #9E9996",
".. c #B59A82",
"X. c #BB9E84",
"o. c gray71",
"O. c #DB9D8B",
"+. c #E49788",
"@. c #E89F8D",
"#. c #C3A48B",
"$. c #C9A68B",
"%. c #C9A88C",
"&. c #D0AB8B",
"*. c #C5A890",
"=. c #CCAB90",
"-. c #DFA591",
";. c #D1AF94",
":. c #DDAB93",
">. c #D7B293",
",. c #D4B295",
"<. c #D7B497",
"1. c #D8B393",
"2. c #D9B699",
"3. c #DBB89B",
"4. c #DFB99A",
"5. c #DDBA9C",
"6. c #E9A18F",
"7. c #E1BD9F",
"8. c #E3BE9F",
"9. c #F1BDA2",
"0. c #E6C1A2",
"q. c #E8C3A3",
"w. c #EAC4A3",
"e. c #EAC4A4",
"r. c #EBC5A4",
"t. c #EAC5A5",
"y. c #EDC7A6",
"u. c #EEC8A7",
"i. c #EEC8A8",
"p. c #EFC9A8",
"a. c #F0C9A9",
"s. c #F1CAA9",
"d. c #F2CBAB",
"f. c #F2CCAA",
"g. c #F4CCAB",
"h. c #F3CCAC",
"j. c #F4CCAC",
"k. c #F4CDAC",
/* pixels */
"N B B B B B B B B B B B B B B B B B B B B B B B B B B B B B B B B B B B B B B B B B B B B B B B B B ",
"B B B B B B B B B B B B B B B B B B B B B B B B B B B B B B B B B B B B B B B B B B B B B B B B B B ",
"B B B B B B B B B B B B B B B B B B B B B B B B B B B B B B B B B B B B B B B B B B B B B B B B B B ",
"B B B B B B B B B B B B B B B B B B B B B B B B B B B B B B B B B B B B N B B B B B B B B B B B B B ",
"B B B B B B B B B B B B B B B B B B B B B B B B B B B B B B B B B B B B B B B B B B B B B B B B B B ",
"B B B B B B B B B B B B B B B B B B B m m m m m B B B B B B B B B B B B B B B B B B B B B B B B B B ",
"B B B B B B B B B B B B B B m m B B m m b z s s l z b B B B B B B B B B B B B B B B B B B B B B B B ",
"B B B B B B B B B B B B B B m m B m m s w % $ % # $ y m B B B B B B B B B B B B B B B B B B B B B B ",
"B B B B B B B m B B B m m b b m b N s - # 0 # o @ # - x b b B B B B B B B B B B B B B B B B B B B B ",
"B B B B B B m x z z z z s a a s x c e # o # # 0 # # 9 c b b B B B B B B B B B B B B B B B B B B B B ",
"B B B B m x a 3 - ; ; - $ @ $ $ ; ; & # # # # # # # 9 c b B B B B B B B B B B B B B B B B B B B B B ",
"B B B x z r $ o @ @ % % # # # @ # o o # # # # # # # $ l b B B B B B B B B B B B B B B B B B B B B B ",
"B B m b e # @ @ % % # # # # # o # # # # # # # # o o $ l b B B B B B B B B B B B B B B B B B B B B B ",
"B B m l - # # # # @ # # # # # # # # # # # # # @ o @ & l N B B B B B B B B B B B B B B B B B B B B B ",
"B B B s = # # # # # # # # # # # o 0 o # @ o @ # # & y b b B B B B B B B B B B B B B B B B N B B B B ",
"B B B l - @ @ @ @ # # # # # 0 @ o o o o @ @ @ # : s b m B B B B B B B B B B B B B B B B B B B B B B ",
"m m m b 5 @ # % q i h j h h f q o o o o o o o o 5 x N B B B B B B B B B B B B B B B B B B B B B B B ",
"B m m b a p F _ 1.q.i.k.j.s.y.5.&.` U f 0 o o o e l N N B B B B B B B B B B B B B B B B B B B B B B ",
"B B m b s ' t.f.g.g.j.j.g.f.f.d.s.g.y.&.F 0 0 # ; N N N B B B B B B B B B B B B B B B B B B B B B B ",
"B B m k 7 J ] 1.q.j.j.f.i.<.$.{ [ { { #.$.U 0 o o x N N B B B B B B B B B B B B B B B B B B B B B B ",
"B m x u a d C E ' u.g.f.2.~ H r e 1 1 y ~ 7.R 0 o e N N B B B B B B B B B B B B B B B B B B B B B B ",
"B b k 1 S ' %.#.{ u.g.g.8.*.X.] ! Y H H ~ 7.7.~ h 9 l N B B B B B B B B B B B B B B B B B B B B B B ",
"b b 8 1 a I #.h.p.f.g.g.h.h.i.../ y d W [ t.j.t.:.( t b N B B B B B B B B B B B B B B B B B B B B B ",
"b x l ) ) ..2.f.h.k.k.k.h.h.0.Q  .  = ^ ..s.j.j.s.y.) u c N B B B B B B B B B B B B B B B B B B B B ",
"B x Z q.i.h.h.s.j.j.j.h.j.j.d.8.*.' [ ,.u.g.k.k.j.j.t.[ a x m m B B B B B B B B B B B B B B B B B B ",
"m x v ,.j.j.h.h.t.i.s.d.u.i.h.h.k.j.f.g.f.h.k.f.f.h.h.t.Q a m m B B B B B B B B B B B B B B B B B B ",
"B b z I 0.h.g.5.$.=.;.=.$.%.q.d.h.h.j.j.j.h.f.j.f.h.h.f.=.D l m N N B B B B B B B B N B B B B B B B ",
"B b x v [ s.f.<.-.O.O.O.:.,.8.d.j.f.f.k.k.f.f.h.h.j.j.h.h.' k l b N B B B B B B B B B B B B B B B B ",
"B B b l G ;.i.t.9.6.+.@.9.q.u.f.f.k.f.j.k.f.j.j.k.k.k.k.h.2.A < 8 b b N B B B B B B B B B B B B B B ",
"B B N N z E =.5.0.3.=.3.f.h.f.h.j.k.k.j.f.k.k.k.k.k.k.k.h.p.[ 6 > u N N B B B B B B B B B B B B B B ",
"B B B B x x D ~ ..$.#.=.2.<.q.f.k.k.h.f.g.f.k.k.k.k.j.k.g.f...7 > < N B B B B B B B B B B B B B B B ",
"B B B B B b z c n S K L H H ' 7.f.h.h.k.f.g.k.k.k.k.j.j.g.u.E < > + b N B B B B B B B B B B B B B B ",
"B B B N B B N x x x z z x x z Z ' t.h.i.h.h.j.j.j.k.k.k.f.%.c > X . < x N N B B B B B B B B B B B B ",
"B B B B B B B N N x b N x N b x u Z #.9.h.h.j.f.j.j.k.f.5.H , > X > X 8 N N B B B B B B B B B B B B ",
"B B B B B B B B B B B B B B b b 6 O * c ..q.f.f.f.f.f.<.D , > X X > + X 8 x N N B B B B B B B B B B ",
"B B B B B B B B B B B B B B N b 6 O > + < T ,.q.7.%.] M > + X X > > > > X 2 k b b B B B B B B B B B ",
"B B B B B B B B B B B B B B B b u . X X + > n I C , + . O X X > > > > > > + > u b b B B B B B B B B ",
"B B B B B B B B B B B B B B b k > + > + X X . . . . . . X > > > > > > > > > + > 8 b B B B B B B B B ",
"B B B B B B B B B B B B N b x < + > > > > > > > * . X X > > > > > > > , > > > + + k b N B B B B B B ",
"B B B B B B B B B B B B B x 2 X > > > > > > > > > X > X > > > > > > > > > > > > + > x B B B B B B B ",
"B B B B B B B B B B B B b 6 > > > > > > > > > > > X + X > 6 N V V V P > + > > > > X < N N N B B B B ",
"B B B B B B B B B B B B u > + > > > > > > < > > X + + X > 6 } o.| } | > X > > > > + X u N N B B B B ",
"B B B B B B B B B B B x 2 + > > > + > > > > > > X > + + > < N V x 6 P > + X > > > > > + x b B B B B ",
"B B B B B B B B B B b 8 > > > > > X < > > > < > . > X + > > > > > > > > > X X > > > > + < b N B B B ",
"B B B B B B B B B N b 6 X > > > X + > > > > > > X > X X > > > < > > > > > > X > > > > > X u b N N B ",
"B B B B B B B B B B k > + > > > X > > > > > > > X > + X > > > > > > > < > > X + > > > > + > x N N N ",
"B B B B B B B B B N k X > > > > X > > > > > > > X > > X > < > > > < > > > > + X > > > > > + 8 N N N ",
"B B B B B B B B N b 6 X > > > X > > > > < > > > X > X X > > > > > > > > > > > X > > > > > + < x N N ",
"B B N N N B N N B x < + > > > X + > > > > < > + + > X + > > > > > > > > < > > X > > > > > > > k N N ",
"b b b b b b b b m k X > > > > X > > > > > > > + + > X + > > > > > > > > > > > X X > > > > > + 8 N N "
};
