/* XPM */
static char *de8b2d04eda74ceaf4f5730cb56b5706DOFRyaJ6cJjh5Y8z[] = {
/* columns rows colors chars-per-pixel */
"50 50 3 1 ",
"  c gray44",
". c #8E8E8E",
"X c white",
/* pixels */
".........................                         ",
"......................... XXXXXXXXXXXXXXXXXXXXXXX ",
"......................... XXXXXXXXXXXXXXXXXXXXXXX ",
"......................... XXXXXXXXXXXXXXXXXXXXXXX ",
"......................... XXXXXXXXXXXXXXXXXXXXXXX ",
"......................... XXXXXXXXXXXXXXXXXXXXXXX ",
"......................... XXXXXXXXXXXXXXXXXXXXXXX ",
"......................... XXXXXXXXXXXXXXXXXXXXXXX ",
"......................... XXXXXXXXXXXXXXXXXXXXXXX ",
"......................... XXXXXXXXXXXXXXXXXXXXXXX ",
"......................... XXXXXXXXXXXXXXXXXXXXXXX ",
"......................... XXXXXXXXXXXXXXXXXXXXXXX ",
"......................... XXXXXXXXXXXXXXXXXXXXXXX ",
"......................... XXXXXXXXXXXXXXXXXXXXXXX ",
"......................... XXXXXXXXXXXXXXXXXXXXXXX ",
".........................                         ",
"..................................................",
"                                                  ",
" XXXXXXXXXXXXXXXXXXXXXXXXXXXXXXXXXXXXXXXXXXXXXXXX ",
" XXXXXXXXXXXXXXXXXXXXXXXXXXXXXXXXXXXXXXXXXXXXXXXX ",
" XXXXXXXXXXXXXXXXXXXXXXXXXXXXXXXXXXXXXXXXXXXXXXXX ",
" XXXXXXXXXXXXXXXXXXXXXXXXXXXXXXXXXXXXXXXXXXXXXXXX ",
" XXXXXXXXXXXXXXXXXXXXXXXXXXXXXXXXXXXXXXXXXXXXXXXX ",
" XXXXXXXXXXXXXXXXXXXXXXXXXXXXXXXXXXXXXXXXXXXXXXXX ",
" XXXXXXXXXXXXXXXXXXXXXXXXXXXXXXXXXXXXXXXXXXXXXXXX ",
" XXXXXXXXXXXXXXXXXXXXXXXXXXXXXXXXXXXXXXXXXXXXXXXX ",
" XXXXXXXXXXXXXXXXXXXXXXXXXXXXXXXXXXXXXXXXXXXXXXXX ",
" XXXXXXXXXXXXXXXXXXXXXXXXXXXXXXXXXXXXXXXXXXXXXXXX ",
" XXXXXXXXXXXXXXXXXXXXXXXXXXXXXXXXXXXXXXXXXXXXXXXX ",
" XXXXXXXXXXXXXXXXXXXXXXXXXXXXXXXXXXXXXXXXXXXXXXXX ",
" XXXXXXXXXXXXXXXXXXXXXXXXXXXXXXXXXXXXXXXXXXXXXXXX ",
" XXXXXXXXXXXXXXXXXXXXXXXXXXXXXXXXXXXXXXXXXXXXXXXX ",
" XXXXXXXXXXXXXXXXXXXXXXXXXXXXXXXXXXXXXXXXXXXXXXXX ",
" XXXXXXXXXXXXXXXXXXXXXXXXXXXXXXXXXXXXXXXXXXXXXXXX ",
"                                                  ",
"..................................................",
"                           .......................",
" XXXXXXXXXXXXXXXXXXXXXXXXX .......................",
" XXXXXXXXXXXXXXXXXXXXXXXXX .......................",
" XXXXXXXXXXXXXXXXXXXXXXXXX .......................",
" XXXXXXXXXXXXXXXXXXXXXXXXX .......................",
" XXXXXXXXXXXXXXXXXXXXXXXXX .......................",
" XXXXXXXXXXXXXXXXXXXXXXXXX .......................",
" XXXXXXXXXXXXXXXXXXXXXXXXX .......................",
" XXXXXXXXXXXXXXXXXXXXXXXXX .......................",
" XXXXXXXXXXXXXXXXXXXXXXXXX .......................",
" XXXXXXXXXXXXXXXXXXXXXXXXX .......................",
" XXXXXXXXXXXXXXXXXXXXXXXXX .......................",
" XXXXXXXXXXXXXXXXXXXXXXXXX .......................",
"                           ......................."
};
